
<svg width="1596" height="804" viewBox="0 0 1596 804" fill="none" xmlns="http://www.w3.org/2000/svg">
<path d="M676.34 -5.60655e-06L905.116 87.2611L876.66 274.643L1047.05 57.4071L1269.12 155.738L1250.78 263.378C1259.27 256.174 1267.78 249.21 1276.32 242.472C1360.92 175.71 1448.77 131.042 1537.45 109.746L1596 353.331C1526.44 370.055 1416.35 424.063 1286.91 586.404C1204.35 689.953 1156.92 784.132 1156.45 785.08L920.908 708.031L939.152 600.932L779.892 804L557.463 707.88L570.759 620.364L464.786 782.779L234.611 711.851L236.461 618.273C186.438 656.023 131.346 684.027 71.9672 701.834L5.67256e-05 461.844C78.0133 438.457 142.551 380.177 191.822 288.63C233.438 211.325 247.546 139.6 247.696 138.878L247.591 139.419L496.069 164.491L493.783 279.831L676.355 -5.60655e-06H676.34Z" fill="#C1F11D"/>
</svg>
